<svg width="22" height="15" viewBox="0 0 22 15" fill="none" xmlns="http://www.w3.org/2000/svg">
<path d="M11.0021 11.5769C12.1352 11.5769 13.0976 11.1803 13.8892 10.3871C14.6809 9.59394 15.0767 8.6308 15.0767 7.4977C15.0767 6.36462 14.6802 5.40224 13.887 4.61058C13.0938 3.81891 12.1307 3.42308 10.9976 3.42308C9.86448 3.42308 8.9021 3.81966 8.11044 4.61282C7.31877 5.40601 6.92294 6.36915 6.92294 7.50225C6.92294 8.63533 7.31952 9.59771 8.11269 10.3894C8.90587 11.181 9.86901 11.5769 11.0021 11.5769ZM10.9998 10.2C10.2498 10.2 9.61234 9.93748 9.08734 9.41248C8.56234 8.88748 8.29984 8.24998 8.29984 7.49998C8.29984 6.74998 8.56234 6.11248 9.08734 5.58748C9.61234 5.06248 10.2498 4.79998 10.9998 4.79998C11.7498 4.79998 12.3873 5.06248 12.9123 5.58748C13.4373 6.11248 13.6998 6.74998 13.6998 7.49998C13.6998 8.24998 13.4373 8.88748 12.9123 9.41248C12.3873 9.93748 11.7498 10.2 10.9998 10.2ZM10.9998 14.5C8.89472 14.5 6.96941 13.9384 5.22391 12.8153C3.47839 11.6923 2.08513 10.2147 1.04411 8.38265C0.960778 8.23907 0.899878 8.09436 0.861411 7.94853C0.822944 7.80268 0.803711 7.65299 0.803711 7.49948C0.803711 7.34596 0.822944 7.19645 0.861411 7.05095C0.899878 6.90543 0.960778 6.76088 1.04411 6.6173C2.08513 4.78525 3.47839 3.30769 5.22391 2.18463C6.96941 1.06154 8.89472 0.5 10.9998 0.5C13.105 0.5 15.0303 1.06154 16.7758 2.18463C18.5213 3.30769 19.9145 4.78525 20.9556 6.6173C21.0389 6.76088 21.0998 6.90559 21.1383 7.05143C21.1767 7.19728 21.196 7.34696 21.196 7.50048C21.196 7.65399 21.1767 7.8035 21.1383 7.949C21.0998 8.09452 21.0389 8.23907 20.9556 8.38265C19.9145 10.2147 18.5213 11.6923 16.7758 12.8153C15.0303 13.9384 13.105 14.5 10.9998 14.5ZM10.9998 13C12.8832 13 14.6123 12.5041 16.1873 11.5125C17.7623 10.5208 18.9665 9.18331 19.7998 7.49998C18.9665 5.81664 17.7623 4.47914 16.1873 3.48748C14.6123 2.49581 12.8832 1.99998 10.9998 1.99998C9.1165 1.99998 7.38734 2.49581 5.81234 3.48748C4.23734 4.47914 3.03317 5.81664 2.19984 7.49998C3.03317 9.18331 4.23734 10.5208 5.81234 11.5125C7.38734 12.5041 9.1165 13 10.9998 13Z" fill="#4B5563"/>
</svg>
