<svg width="22" height="19" viewBox="0 0 22 19" fill="none" xmlns="http://www.w3.org/2000/svg">
<path d="M14.7731 9.97294L13.6501 8.84989C13.8206 7.96014 13.5866 7.20116 12.9481 6.57296C12.3097 5.94476 11.5437 5.70374 10.6501 5.84989L9.52702 4.72684C9.75907 4.61914 9.99785 4.54157 10.2433 4.49414C10.4889 4.44671 10.7411 4.42299 11.0001 4.42299C12.1347 4.42299 13.0978 4.81882 13.8895 5.61049C14.6811 6.40216 15.077 7.36529 15.077 8.49989C15.077 8.75886 15.0549 9.0111 15.0106 9.25662C14.9664 9.50212 14.8872 9.74089 14.7731 9.97294ZM17.9539 13.0845L16.8501 12.0499C17.4834 11.5666 18.0501 11.0291 18.5501 10.4374C19.0501 9.84572 19.4667 9.19989 19.8001 8.49989C18.9667 6.81656 17.7626 5.47906 16.1876 4.48739C14.6126 3.49572 12.8834 2.99989 11.0001 2.99989C10.5167 2.99989 10.0459 3.03322 9.58757 3.09989C9.12924 3.16656 8.66674 3.26656 8.20007 3.39989L7.03472 2.23454C7.67061 1.98326 8.319 1.798 8.9799 1.67877C9.64078 1.55953 10.3142 1.49991 11.0001 1.49991C13.1488 1.49991 15.1225 2.05825 16.9212 3.17491C18.7199 4.29158 20.1032 5.80247 21.0712 7.70759C21.1379 7.83451 21.1863 7.96239 21.2164 8.09124C21.2465 8.22009 21.2616 8.35631 21.2616 8.49989C21.2616 8.64347 21.2491 8.77969 21.2241 8.90854C21.1991 9.03739 21.1532 9.16527 21.0866 9.29219C20.7327 10.0448 20.2885 10.7396 19.7539 11.3768C19.2193 12.014 18.6193 12.5832 17.9539 13.0845ZM11.0001 15.4999C8.89496 15.4999 6.96548 14.9374 5.21165 13.8124C3.4578 12.6874 2.06357 11.2056 1.02895 9.36719C0.945616 9.24027 0.884724 9.10246 0.846274 8.95374C0.807808 8.80502 0.788574 8.65374 0.788574 8.49989C0.788574 8.34604 0.805241 8.19732 0.838574 8.05374C0.871908 7.91016 0.930241 7.76977 1.01357 7.63259C1.38537 6.95311 1.80653 6.30599 2.27705 5.69124C2.74757 5.07649 3.28859 4.52553 3.90012 4.03837L1.64242 1.76526C1.50396 1.61655 1.43569 1.43995 1.43762 1.23546C1.43954 1.03098 1.51293 0.856306 1.6578 0.71144C1.80267 0.566573 1.97831 0.494141 2.18472 0.494141C2.39112 0.494141 2.56676 0.566573 2.71162 0.71144L19.2885 17.2883C19.427 17.4268 19.5004 17.5983 19.5087 17.8027C19.517 18.0072 19.4436 18.187 19.2885 18.3422C19.1437 18.487 18.968 18.5595 18.7616 18.5595C18.5552 18.5595 18.3796 18.487 18.2347 18.3422L14.7155 14.8537C14.1257 15.0819 13.5196 15.2467 12.8972 15.3479C12.2748 15.4492 11.6424 15.4999 11.0001 15.4999ZM4.95395 5.09216C4.36805 5.54473 3.84144 6.0566 3.37412 6.62777C2.90681 7.19892 2.51546 7.82296 2.20007 8.49989C3.03341 10.1832 4.23757 11.5207 5.81257 12.5124C7.38757 13.5041 9.11674 13.9999 11.0001 13.9999C11.4296 13.9999 11.8523 13.971 12.2684 13.9133C12.6844 13.8557 13.0975 13.7666 13.5078 13.646L12.2424 12.3499C12.0398 12.4383 11.8376 12.4982 11.6356 12.5297C11.4337 12.5611 11.2219 12.5768 11.0001 12.5768C9.86547 12.5768 8.90234 12.181 8.11067 11.3893C7.31901 10.5976 6.92317 9.63449 6.92317 8.49989C6.92317 8.27809 6.94048 8.06623 6.9751 7.86432C7.00972 7.66238 7.06805 7.46013 7.1501 7.25757L4.95395 5.09216Z" fill="#4B5563"/>
</svg>
