<svg fill="none" height="20" viewBox="0 0 20 20" width="20" xmlns="http://www.w3.org/2000/svg"><path d="m19.7029 4.11415c-.6958.30833-1.4433.51667-2.2292.61083.8109-.48517 1.4175-1.24878 1.7067-2.14833-.7618.45249-1.5955.771-2.465.94167-.5847-.62428-1.3591-1.03807-2.203-1.17711-.844-.13904-1.7102.00443-2.4643.40815-.754.40372-1.3537 1.04509-1.7059 1.82454-.35217.77945-.43717 1.65337-.2418 2.48608-1.54358-.0775-3.05363-.47871-4.43213-1.17758s-2.59465-1.67978-3.56952-2.87908c-.33333.575-.525 1.24166-.525 1.95166-.00037.63917.15703 1.26854.45823 1.83228.30121.56374.7369 1.04442 1.26844 1.39939-.61644-.01961-1.21928-.18618-1.75834-.48583v.05c-.00006.89645.31003 1.76531.87766 2.45918.56762.6938 1.35782 1.1699 2.23651 1.3475-.57185.1547-1.17139.1775-1.75333.0667.24791.7713.73083 1.4458 1.38114 1.9291.65031.4832 1.43545.751 2.24552.7659-1.37514 1.0795-3.07342 1.665-4.82166 1.6624-.30969.0001-.61911-.018-.92667-.0541 1.77456 1.141 3.84028 1.7465 5.95 1.7441 7.14165 0 11.04585-5.915 11.04585-11.04495 0-.16667-.0042-.335-.0117-.50167.7594-.54919 1.4149-1.22925 1.9359-2.00833z" fill="#fff"/></svg>