<svg fill="none" height="20" viewBox="0 0 20 20" width="20" xmlns="http://www.w3.org/2000/svg" xmlns:xlink="http://www.w3.org/1999/xlink"><clipPath id="a"><path d="m0 0h20v20h-20z"/></clipPath><g clip-path="url(#a)"><path d="m19.5829 5.4224c-.1133-.40397-.3339-.76971-.6384-1.05833-.3131-.2975-.6968-.51031-1.115-.61834-1.565-.4125-7.83496-.4125-7.83496-.4125-2.61389-.02974-5.22714.10107-7.825.39167-.41818.11601-.8012.33357-1.115.63333-.308336.29667-.531669.6625-.648336 1.06334-.280255 1.50978-.4164229 3.04278-.40666624 4.57833-.00999996 1.5342.12583324 3.0667.40666624 4.5783.114167.3992.336667.7634.645836 1.0575.30916.2942.69416.5067 1.1175.6192 1.58583.4117 7.825.4117 7.825.4117 2.61726.0297 5.23376-.1011 7.83496-.3917.4182-.108.8019-.3208 1.115-.6183.3044-.2886.5248-.6544.6375-1.0584.2876-1.5092.4274-3.0428.4175-4.5791.0217-1.54286-.118-3.08373-.4166-4.59753zm-11.5817 7.4308v-5.7058l5.2167 2.8533z" fill="#fff"/></g></svg>