<svg width="220" height="220" viewBox="0 0 220 220" fill="none" xmlns="http://www.w3.org/2000/svg">
<rect width="220" height="220" fill="#F9FAFB"/>
<path d="M129.703 41.9615L145.646 41.9746L142.443 60.041C147.958 64.1036 150.645 70.9763 149.348 77.7026L145.067 99.9015L130.187 99.8892L126.596 77.3259C125.549 70.7514 128.159 64.1278 133.408 60.0336L129.703 41.9615Z" fill="#E5E7EB"/>
<rect x="52.0645" y="99.8247" width="115.855" height="78.1222" rx="6.37732" transform="rotate(0.0471621 52.0645 99.8247)" fill="#E5E7EB"/>
<path fill-rule="evenodd" clip-rule="evenodd" d="M111.31 99.8735L137.906 122.335L134.08 122.799L134.455 126.421L130.725 126.772L131.004 130.507L127.274 130.858L127.553 134.593L123.823 134.944L124.102 138.679L78.1206 99.8462L111.31 99.8735Z" fill="#F3F4F6"/>
<path d="M106.812 132.902C107.177 134.465 105.904 136.098 104.528 136.42C103.152 136.741 101.345 135.826 100.98 134.262C100.615 132.699 101.667 130.616 103.043 130.295C104.878 129.867 106.447 131.338 106.812 132.902Z" fill="#F3F4F6"/>
<path d="M113.832 132.961C113.303 134.477 114.394 136.237 115.728 136.702C117.062 137.168 118.957 136.451 119.486 134.935C120.015 133.419 119.191 131.236 117.857 130.77C116.078 130.149 114.361 131.445 113.832 132.961Z" fill="#F3F4F6"/>
<path d="M120.422 141.864C120.177 146.445 115.612 147.909 109.51 147.583C103.407 147.257 99.1259 145.321 99.3706 140.74C99.6551 135.411 103.237 131.336 110.357 131.716C117.477 132.096 120.728 136.133 120.422 141.864Z" fill="#F3F4F6"/>
<path d="M108.505 139.851C108.434 141.18 107.534 142.594 106.385 142.533C105.236 142.471 103.438 141.289 103.544 139.304C103.643 137.439 105.684 136.883 107.738 137.334C108.997 137.611 108.576 138.522 108.505 139.851Z" fill="#E5E7EB"/>
<path d="M106.367 139.538C106.353 139.798 106.42 140.014 106.813 140.035C107.206 140.056 107.295 139.849 107.309 139.588C107.323 139.328 107.177 139.109 106.863 139.092C106.549 139.075 106.381 139.278 106.367 139.538Z" fill="white"/>
<path d="M111.434 140.007C111.363 141.336 112.108 142.838 113.257 142.899C114.406 142.96 116.32 141.977 116.426 139.992C116.526 138.127 114.556 137.356 112.465 137.586C111.184 137.727 111.505 138.678 111.434 140.007Z" fill="#E5E7EB"/>
<path d="M113.594 139.923C113.58 140.184 113.49 140.391 113.097 140.37C112.704 140.349 112.637 140.133 112.651 139.873C112.665 139.613 112.833 139.41 113.148 139.427C113.462 139.444 113.608 139.663 113.594 139.923Z" fill="white"/>
<rect x="58.9829" y="88.1387" width="57.9273" height="11.6918" rx="1.06289" transform="rotate(0.0471621 58.9829 88.1387)" fill="#E5E7EB"/>
<rect x="55.252" y="79.6396" width="52.0815" height="8.5031" rx="1.06289" transform="rotate(0.0471621 55.252 79.6396)" fill="#E5E7EB"/>
<rect x="62.1606" y="71.1748" width="52.0815" height="8.5031" rx="1.06289" transform="rotate(0.0471621 62.1606 71.1748)" fill="#E5E7EB"/>
</svg>
