<svg width="16" height="16" viewBox="0 0 16 16" fill="none" xmlns="http://www.w3.org/2000/svg">
<path d="M14.7335 6.06667C14.6668 3.8 12.8668 2 10.6002 2C9.86683 2 8.7335 2.53333 8.26683 3.4C8.20016 3.6 7.9335 3.6 7.86683 3.4C7.3335 2.6 6.26683 2.06667 5.46683 2.06667C3.26683 2.06667 1.40016 3.86667 1.3335 6.06667V6.2C1.3335 7.33333 1.80016 8.4 2.60016 9.2C2.60016 9.2 2.60016 9.2 2.60016 9.26667C2.66683 9.33333 5.86683 12.1333 7.3335 13.4C7.7335 13.7333 8.3335 13.7333 8.7335 13.4C10.2002 12.1333 13.3335 9.33333 13.4668 9.26667C13.4668 9.26667 13.4668 9.26667 13.4668 9.2C14.2668 8.46667 14.7335 7.4 14.7335 6.2V6.06667Z" fill="#FF68CC"/>
</svg>
