<svg width="396" height="132" viewBox="0 0 396 132" fill="none" xmlns="http://www.w3.org/2000/svg">
<rect y="12.9844" width="103.529" height="103.88" rx="28.9317" fill="#3692FF"/>
<path d="M49.9902 41.9061C51.2825 46.372 47.8655 51.2931 43.9487 52.4342C40.032 53.5753 34.6809 51.2086 33.3886 46.7427C32.0963 42.2767 34.8092 36.0888 38.726 34.9477C43.9487 33.4262 48.6979 37.4401 49.9902 41.9061Z" fill="#222327"/>
<path d="M52.1442 41.9061C50.8519 46.372 54.2689 51.2931 58.1857 52.4342C62.1024 53.5753 67.4535 51.2086 68.7458 46.7427C70.0381 42.2767 67.3252 36.0888 63.4084 34.9477C58.1857 33.4262 53.4365 37.4401 52.1442 41.9061Z" fill="#222327"/>
<path d="M76.3971 74.5322C76.3971 85.8915 65.2589 90.1139 50.0657 90.1139C34.8725 90.1139 23.9863 85.8915 23.9863 74.5322C23.9863 61.319 34.8725 49.6016 50.0657 49.6016C65.2589 49.6016 76.3971 60.3217 76.3971 74.5322Z" fill="#F3D6DD"/>
<path d="M45.0365 72.2896C45.0365 76.01 42.6485 80.0912 39.3115 80.0912C35.9745 80.0912 30.584 77.0599 30.584 71.5025C30.584 66.282 36.4074 64.4253 42.4249 65.3786C46.1131 65.9629 45.0365 68.5693 45.0365 72.2896Z" fill="#222327"/>
<path d="M42.2451 71.914C42.2451 72.472 42.0773 72.9244 41.2381 72.9244C40.3989 72.9244 40.2311 72.472 40.2311 71.914C40.2311 71.356 40.5668 70.9036 41.2381 70.9036C41.9095 70.9036 42.2451 71.356 42.2451 71.914Z" fill="white"/>
<path d="M55.1867 72.2896C55.1867 76.01 57.5747 80.0912 60.9117 80.0912C64.2487 80.0912 69.6392 77.0599 69.6392 71.5025C69.6392 66.282 63.8158 64.4253 57.7983 65.3786C54.1101 65.9629 55.1867 68.5693 55.1867 72.2896Z" fill="#222327"/>
<path d="M57.9812 71.914C57.9812 72.472 58.149 72.9244 58.9882 72.9244C59.8274 72.9244 59.9952 72.472 59.9952 71.914C59.9952 71.356 59.6596 70.9036 58.9882 70.9036C58.3169 70.9036 57.9812 71.356 57.9812 71.914Z" fill="white"/>
<path d="M46.2655 77.6706C46.0623 77.374 45.6572 77.2983 45.3606 77.5015C45.064 77.7047 44.9883 78.1099 45.1915 78.4064L46.2655 77.6706ZM49.999 76.8699L50.6148 76.6589C50.5247 76.3957 50.2772 76.2189 49.999 76.2189C49.7208 76.2189 49.4734 76.3957 49.3832 76.6589L49.999 76.8699ZM54.8065 78.4064C55.0097 78.1099 54.934 77.7047 54.6375 77.5015C54.3409 77.2983 53.9357 77.374 53.7325 77.6706L54.8065 78.4064ZM45.1915 78.4064C45.3714 78.6689 45.698 79.0207 46.136 79.3113C46.5781 79.6046 47.1686 79.8581 47.8638 79.8581V78.5562C47.4913 78.5562 47.1477 78.4201 46.8557 78.2264C46.5598 78.0301 46.3526 77.7976 46.2655 77.6706L45.1915 78.4064ZM47.8638 79.8581C48.7192 79.8581 49.3555 79.2479 49.7515 78.7225C50.1696 78.1677 50.4651 77.5179 50.6148 77.0808L49.3832 76.6589C49.266 77.0009 49.0277 77.5198 48.7118 77.9389C48.3738 78.3873 48.0759 78.5562 47.8638 78.5562V79.8581ZM49.3832 77.0808C49.5329 77.5179 49.8284 78.1677 50.2465 78.7225C50.6425 79.2479 51.2788 79.8581 52.1343 79.8581V78.5562C51.9221 78.5562 51.6242 78.3873 51.2862 77.9389C50.9703 77.5198 50.732 77.0009 50.6148 76.6589L49.3832 77.0808ZM52.1343 79.8581C52.8294 79.8581 53.42 79.6046 53.862 79.3113C54.3 79.0207 54.6267 78.6689 54.8065 78.4064L53.7325 77.6706C53.6455 77.7976 53.4383 78.0301 53.1423 78.2264C52.8504 78.4201 52.5068 78.5562 52.1343 78.5562V79.8581Z" fill="#222327"/>
<path d="M53.553 76.2691C53.553 76.8106 51.1148 77.4998 50.2942 77.7165C50.1189 77.7628 49.938 77.7628 49.7626 77.7165C48.9421 77.4998 46.5038 76.8106 46.5038 76.2691C46.5038 75.6181 48.4526 74.9219 50.0284 74.9219C51.6042 74.9219 53.553 75.6181 53.553 76.2691Z" fill="#222327"/>
<path d="M49.6071 58.9512C39.8126 58.9512 36.2132 55.5103 35.6309 53.4976L40.2896 48.4336L50.3835 46.6807L64.3597 53.4976C63.5185 55.1207 59.4123 58.9512 49.6071 58.9512Z" fill="#222327"/>
<path fill-rule="evenodd" clip-rule="evenodd" d="M50.9626 95.7631C71.2026 95.7631 86.0406 90.0587 86.0406 74.7124C86.0406 55.5141 71.2026 41.0312 50.9626 41.0312C30.7226 41.0312 16.2202 56.8614 16.2202 74.7124C16.2202 90.0587 30.7226 95.7631 50.9626 95.7631ZM50.167 89.8696C65.0551 89.8696 75.9696 85.6922 75.9696 74.454C75.9696 60.395 65.0551 49.7891 50.167 49.7891C35.2789 49.7891 24.6113 61.3816 24.6113 74.454C24.6113 85.6922 35.2789 89.8696 50.167 89.8696Z" fill="white"/>
<path d="M183.487 54.3351H191.448V63.6233H183.487V82.4651H171.545V70.7885C163.053 72.5135 154.627 73.4423 142.353 73.4423H128.421V64.3531H133.728V45.5113H129.748V36.5548H166.37V45.5113H162.389V63.358C165.64 62.9599 168.692 62.4955 171.545 61.9647V35.8914H183.487V54.3351ZM134.989 98.2551V78.5508H147.196V89.0332H184.813V98.2551H134.989ZM145.67 64.3531C147.329 64.2868 148.921 64.2868 150.447 64.2204V45.5113H145.67V64.3531ZM257.792 58.9792V68.2674H249.831V98.2551H237.889V87.839C229.397 90.2938 220.971 91.687 208.697 91.687H196.755V37.8817H230.724V46.8382H208.697V82.5978C220.839 82.5978 229.463 81.4036 237.889 79.0152V35.8914H249.831V58.9792H257.792ZM324.137 58.9792V68.2674H316.175V98.2551H304.233V35.8914H316.175V58.9792H324.137ZM263.1 91.687V37.8817H297.798V91.687H263.1ZM275.042 82.5978H285.989V46.9709H275.042V82.5978ZM374.89 35.8914H386.5V71.85H374.89V35.8914ZM325.464 64.7512C333.226 63.1589 339.064 60.7042 342.315 57.586L329.444 58.3821V49.7573H345.102V45.5113H330.771V36.5548H356.712V48.4968H360.493V36.2231H371.772V71.85H360.493V57.785H354.987C351.471 64.6185 342.647 70.2578 329.245 73.6413L325.464 64.7512ZM332.695 88.7679C349.082 88.1708 353.859 84.7872 353.859 79.0152V73.9731H365.801V80.0767C365.801 81.669 365.602 83.1949 365.204 84.5882C372.9 85.1189 380.529 86.1804 386.5 87.5737L383.316 98.2551C376.482 95.8667 366.929 93.5447 359.233 92.2841C353.726 95.9994 344.903 97.7907 333.956 98.2551L332.695 88.7679Z" fill="#3692FF"/>
</svg>
