<svg width="746" height="340" viewBox="0 0 746 340" fill="none" xmlns="http://www.w3.org/2000/svg">
<g clip-path="url(#clip0_23352_15218)">
<rect width="102.494" height="189.553" rx="8" transform="matrix(0.967453 -0.25305 0.24992 0.968267 58.3755 94.04)" fill="#FFE7D1"/>
<path d="M174.536 160.438C173.432 156.159 176.002 151.785 180.277 150.667L222.373 139.656C226.648 138.538 231.008 141.1 232.112 145.378L256.085 238.256L198.509 253.315L174.536 160.438Z" fill="#FFE7D1"/>
<path d="M20.0755 187.089C18.9713 182.811 21.5413 178.436 25.8158 177.318L75.1091 164.425C79.3835 163.307 83.7438 165.869 84.848 170.147L112.145 275.904L47.3727 292.847L20.0755 187.089Z" fill="#FFE7D1"/>
<rect width="16.5313" height="19.1216" rx="4" transform="matrix(0.967453 -0.25305 0.24992 0.968267 80.1226 105.538)" fill="#F5C498"/>
<rect width="16.5313" height="19.1216" rx="4" transform="matrix(0.967453 -0.25305 0.24992 0.968267 104.113 99.2627)" fill="#F5C498"/>
<rect width="16.5313" height="19.1216" rx="4" transform="matrix(0.967453 -0.25305 0.24992 0.968267 128.103 92.9878)" fill="#F5C498"/>
<rect width="16.5313" height="19.1216" rx="4" transform="matrix(0.967453 -0.25305 0.24992 0.968267 87.3945 133.712)" fill="#F5C498"/>
<rect width="16.5313" height="19.1216" rx="4" transform="matrix(0.967453 -0.25305 0.24992 0.968267 111.385 127.437)" fill="#F5C498"/>
<rect width="16.5313" height="19.1216" rx="4" transform="matrix(0.967453 -0.25305 0.24992 0.968267 33.3906 187.527)" fill="#F5C498"/>
<rect width="16.5313" height="19.1216" rx="4" transform="matrix(0.967453 -0.25305 0.24992 0.968267 57.3804 181.253)" fill="#F5C498"/>
<rect width="16.5313" height="19.1216" rx="4" transform="matrix(0.967453 -0.25305 0.24992 0.968267 184.449 162.464)" fill="#F5C498"/>
<rect width="16.5313" height="19.1216" rx="4" transform="matrix(0.967453 -0.25305 0.24992 0.968267 208.439 156.19)" fill="#F5C498"/>
<rect width="16.5313" height="19.1216" rx="4" transform="matrix(0.967453 -0.25305 0.24992 0.968267 135.375 121.163)" fill="#F5C498"/>
<ellipse cx="373" cy="349.862" rx="373" ry="146.383" fill="#D7A37E"/>
<ellipse cx="373" cy="349.862" rx="373" ry="146.383" fill="url(#paint0_linear_23352_15218)"/>
<path d="M316.937 150.284C319.934 167.09 339.589 169.137 349.578 168.598L372.586 201.456C372.23 205.047 360.126 220.524 315.607 204.149C264.773 185.452 272.576 140.281 286.437 134.124C304.63 126.045 313.192 129.276 316.937 150.284Z" fill="#222327"/>
<path d="M484.252 117.253C484.252 159.694 443.351 175.47 387.558 175.47C331.765 175.47 291.788 159.694 291.788 117.253C291.788 67.8845 331.765 24.105 387.558 24.105C443.351 24.105 484.252 64.1585 484.252 117.253Z" fill="white"/>
<path d="M336.736 224.82C336.736 206.733 343.248 179.442 349.043 168.058H429.841C435.465 178.159 440.941 203.654 440.532 224.82C440.02 251.277 412.921 253.201 387.867 254.163C362.813 255.125 336.736 247.429 336.736 224.82Z" fill="white"/>
<path d="M346.696 259.427C341.551 249.935 336.736 244.548 336.736 221.386L370.911 231.34C376.302 231.251 387.375 233.214 388.538 241.774C389.99 252.475 385.12 265.718 382.787 267.299C380.92 268.563 374.481 268.284 371.495 267.986L360.032 265.808C355.831 267.742 351.342 267.999 346.696 259.427Z" fill="white"/>
<path d="M430.499 259.427C435.644 249.935 440.46 244.548 440.46 221.386L406.285 231.34C400.893 231.251 389.82 233.214 388.658 241.774C387.206 252.475 392.076 265.718 394.409 267.299C396.276 268.563 402.715 268.284 405.701 267.986L417.164 265.808C421.365 267.742 425.854 267.999 430.499 259.427Z" fill="white"/>
<path d="M349.317 172.368L346.106 171.83L343.431 178.832L343.966 182.603L349.317 172.368Z" fill="#222327"/>
<path d="M383.824 266.542C383.824 271.363 379.608 273.635 366.487 273.635C353.366 273.635 345.297 271.909 345.297 267.088C345.297 262.266 346.154 256.937 364.025 256.937C377.147 256.937 383.824 261.721 383.824 266.542Z" fill="white"/>
<path d="M394.525 266.542C394.525 271.363 398.741 273.635 411.862 273.635C424.983 273.635 433.051 271.909 433.051 267.088C433.051 262.266 432.195 256.937 414.323 256.937C401.202 256.937 394.525 261.721 394.525 266.542Z" fill="white"/>
<rect width="38.5609" height="49.3747" rx="19.2804" transform="matrix(0.92957 -0.368645 0.364428 0.931231 413.189 175.224)" fill="#222327"/>
<path d="M384.872 26.1172C388.435 38.4682 379.015 52.0777 368.218 55.2335C357.422 58.3893 342.671 51.8441 339.109 39.4931C335.546 27.1422 343.025 10.0291 353.822 6.87338C368.218 2.66537 381.31 13.7662 384.872 26.1172Z" fill="#222327"/>
<path d="M390.807 26.1172C387.245 38.4682 396.664 52.0777 407.461 55.2335C418.258 58.3893 433.008 51.8441 436.571 39.4931C440.133 27.1422 432.655 10.0291 421.858 6.87338C407.461 2.66537 394.369 13.7662 390.807 26.1172Z" fill="#222327"/>
<path d="M456.493 116.537C456.493 147.617 426.406 159.17 385.366 159.17C344.326 159.17 314.92 147.617 314.92 116.537C314.92 80.3838 344.326 48.3237 385.366 48.3237C426.406 48.3237 456.493 77.6553 456.493 116.537Z" fill="#F3D6DD"/>
<path d="M371.223 110.146C371.223 120.435 364.64 131.722 355.442 131.722C346.243 131.722 331.384 123.338 331.384 107.969C331.384 93.531 347.436 88.3961 364.024 91.0327C374.191 92.6487 371.223 99.8569 371.223 110.146Z" fill="#222327"/>
<path d="M363.527 109.105C363.527 110.649 363.064 111.9 360.751 111.9C358.438 111.9 357.975 110.649 357.975 109.105C357.975 107.562 358.9 106.311 360.751 106.311C362.602 106.311 363.527 107.562 363.527 109.105Z" fill="white"/>
<path d="M399.207 110.145C399.207 120.434 405.79 131.721 414.988 131.721C424.187 131.721 439.046 123.338 439.046 107.968C439.046 93.5305 422.994 88.3957 406.406 91.0322C396.239 92.6482 399.207 99.8564 399.207 110.145Z" fill="#222327"/>
<path d="M406.904 109.105C406.904 110.648 407.366 111.899 409.68 111.899C411.993 111.899 412.456 110.648 412.456 109.105C412.456 107.562 411.53 106.311 409.68 106.311C407.829 106.311 406.904 107.562 406.904 109.105Z" fill="white"/>
<path d="M374.725 124.949C374.12 124.063 372.911 123.835 372.025 124.44C371.139 125.045 370.911 126.254 371.516 127.14L374.725 124.949ZM384.893 122.812L386.731 122.185C386.463 121.398 385.724 120.87 384.893 120.87C384.061 120.87 383.322 121.398 383.054 122.185L384.893 122.812ZM398.269 127.14C398.874 126.254 398.646 125.045 397.76 124.44C396.874 123.835 395.665 124.063 395.06 124.949L398.269 127.14ZM371.516 127.14C372.022 127.881 372.936 128.867 374.159 129.682C375.395 130.504 377.052 131.219 379.007 131.219V127.333C378.018 127.333 377.1 126.971 376.312 126.447C375.513 125.915 374.955 125.285 374.725 124.949L371.516 127.14ZM379.007 131.219C381.441 131.219 383.234 129.48 384.331 128.019C385.494 126.47 386.315 124.659 386.731 123.44L383.054 122.185C382.734 123.12 382.083 124.541 381.224 125.685C380.298 126.918 379.515 127.333 379.007 127.333V131.219ZM383.054 123.44C383.47 124.659 384.291 126.47 385.454 128.019C386.551 129.48 388.344 131.219 390.778 131.219V127.333C390.27 127.333 389.488 126.918 388.561 125.685C387.702 124.541 387.051 123.12 386.731 122.185L383.054 123.44ZM390.778 131.219C392.733 131.219 394.39 130.504 395.626 129.682C396.849 128.867 397.763 127.881 398.269 127.14L395.06 124.949C394.83 125.285 394.272 125.915 393.473 126.447C392.685 126.971 391.767 127.333 390.778 127.333V131.219Z" fill="#222327"/>
<path d="M394.692 121.151C394.692 122.635 388.094 124.52 385.773 125.137C385.248 125.277 384.705 125.277 384.18 125.137C381.859 124.52 375.261 122.635 375.261 121.151C375.261 119.351 380.633 117.425 384.976 117.425C389.32 117.425 394.692 119.351 394.692 121.151Z" fill="#222327"/>
<path d="M383.822 73.2565C356.823 73.2565 346.901 63.7403 345.296 58.1742L358.138 44.1692L385.963 39.3213L424.489 58.1742C422.17 62.663 410.851 73.2565 383.822 73.2565Z" fill="#222327"/>
<path fill-rule="evenodd" clip-rule="evenodd" d="M387.558 175.604C443.351 175.604 484.252 159.828 484.252 117.386C484.252 64.2918 443.351 24.2383 387.558 24.2383C331.765 24.2383 291.788 68.0178 291.788 117.386C291.788 159.828 331.765 175.604 387.558 175.604ZM385.367 159.302C426.407 159.302 456.493 147.749 456.493 116.669C456.493 77.7875 426.407 48.456 385.367 48.456C344.327 48.456 314.921 80.5161 314.921 116.669C314.921 147.749 344.327 159.302 385.367 159.302Z" fill="white"/>
<path fill-rule="evenodd" clip-rule="evenodd" d="M431.252 172.367C418.319 175.216 403.55 176.512 387.558 176.512C372.948 176.512 359.422 175.43 347.415 173.071C342.094 185.882 336.736 209.862 336.736 226.269C336.736 248.878 362.813 256.574 387.867 255.612C412.921 254.65 440.02 252.726 440.532 226.269C440.906 206.882 436.344 183.862 431.252 172.367Z" fill="white"/>
<path fill-rule="evenodd" clip-rule="evenodd" d="M336.736 220.887C347.703 224.844 364.527 228.037 388.528 227.312C409.246 226.686 426.789 224.101 440.428 221.07C440.153 202.637 435.876 181.981 431.141 171.292C418.208 174.14 403.439 175.436 387.447 175.436C372.836 175.436 359.311 174.355 347.304 171.996C342.432 183.725 337.529 204.817 336.736 220.887Z" fill="#222327"/>
<path d="M410.578 202.533C413.031 180.353 424.226 174.084 434.749 171.032C439.03 169.79 445.986 169.955 449.731 171.571C454.266 173.527 459.363 177.496 463.109 186.653C466.854 195.81 471.578 209.535 473.718 223.54L473.747 223.727C475.889 237.736 479.154 259.091 436.537 259.091C401.424 259.091 408.346 222.722 410.578 202.533Z" fill="#3786E2"/>
<path d="M429.012 216.844C418.831 211.178 415.125 198.306 420.733 188.094L421.241 187.169C425.923 178.645 435.811 174.464 445.173 177.049C458.205 180.648 464.566 195.471 458.207 207.423L456.765 210.132C451.618 219.505 439.871 222.887 430.527 217.687L429.012 216.844Z" fill="#222327"/>
<path d="M343.431 188.528C341.719 190.683 339.329 204.508 338.08 210.613C337.545 210.613 334.335 209.715 333.8 209.536C333.264 203.072 338.08 188.528 343.431 188.528Z" fill="#1A1A1C"/>
<rect x="370.721" y="180.988" width="5.35087" height="16.1596" rx="2.67543" fill="white"/>
<path fill-rule="evenodd" clip-rule="evenodd" d="M370.721 193.915V194.472C370.721 195.95 371.919 197.148 373.397 197.148C374.874 197.148 376.072 195.95 376.072 194.472V193.915H370.721Z" fill="#256FC5"/>
<rect x="397.475" y="180.988" width="5.35087" height="16.1596" rx="2.67543" fill="white"/>
<path fill-rule="evenodd" clip-rule="evenodd" d="M397.475 193.915V194.472C397.475 195.95 398.673 197.148 400.151 197.148C401.628 197.148 402.826 195.95 402.826 194.472V193.915H397.475Z" fill="#256FC5"/>
<path d="M387.843 257.476C386.238 269.865 381.957 272.02 377.676 272.558L379.282 262.324C381.422 259.451 388.673 251.066 387.843 257.476Z" fill="white"/>
<path d="M388.98 257.678C390.585 270.067 395.335 273.366 404.967 273.366L397.541 262.526C395.401 259.653 388.15 251.268 388.98 257.678Z" fill="white"/>
<path fill-rule="evenodd" clip-rule="evenodd" d="M452.44 233.267C453.74 234.759 454.481 236.754 454.666 239.112C455.026 243.701 450.709 245.761 444.636 246.245C438.564 246.728 434.079 245.368 433.719 240.779C433.549 238.622 433.939 236.596 434.932 234.912C434.732 234.683 434.569 234.419 434.457 234.123C433.891 232.616 434.657 230.405 435.975 229.903C437.387 229.366 438.791 230.073 439.582 231.154C440.687 230.741 441.954 230.465 443.388 230.351C444.783 230.24 446.048 230.289 447.185 230.485C447.735 229.169 449.088 228.087 450.674 228.416C452.053 228.703 453.154 230.766 452.831 232.343C452.761 232.681 452.625 232.991 452.44 233.267Z" fill="#2D68AE"/>
<path d="M442.628 238.687C442.732 240.018 442.029 241.543 440.885 241.634C439.742 241.725 437.81 240.788 437.653 238.799C437.507 236.931 439.45 236.108 441.539 236.285C442.819 236.393 442.523 237.355 442.628 238.687Z" fill="#3475C2"/>
<path d="M440.473 238.658C440.494 238.919 440.588 239.124 440.979 239.093C441.37 239.062 441.432 238.844 441.411 238.583C441.391 238.323 441.218 238.124 440.905 238.149C440.592 238.174 440.453 238.397 440.473 238.658Z" fill="white"/>
<path d="M445.542 238.455C445.647 239.786 446.58 241.181 447.723 241.09C448.867 240.999 450.628 239.768 450.472 237.779C450.326 235.911 448.278 235.405 446.243 235.911C444.995 236.22 445.438 237.124 445.542 238.455Z" fill="#3475C2"/>
<path d="M447.665 238.087C447.686 238.348 447.624 238.565 447.234 238.596C446.843 238.627 446.748 238.422 446.728 238.162C446.707 237.901 446.847 237.677 447.159 237.652C447.472 237.627 447.645 237.826 447.665 238.087Z" fill="white"/>
<rect width="23.965" height="44.0725" rx="6" transform="matrix(0.984609 0.174771 -0.172533 0.985004 550.974 187.465)" fill="#DC9759"/>
<ellipse cx="38.0135" cy="38.2516" rx="38.0135" ry="38.2516" transform="matrix(0.984609 0.174771 -0.172533 0.985004 535.076 129.747)" fill="#54B858"/>
<ellipse cx="38.0135" cy="38.2516" rx="38.0135" ry="38.2516" transform="matrix(0.984609 0.174771 -0.172533 0.985004 535.076 129.747)" fill="url(#paint1_linear_23352_15218)"/>
<rect width="23.9789" height="44.0472" rx="6" transform="matrix(0.938958 0.344031 -0.340018 0.940419 648.901 211.825)" fill="#DC9759"/>
<ellipse cx="38.0355" cy="38.2296" rx="38.0355" ry="38.2296" transform="matrix(0.938958 0.344031 -0.340018 0.940419 643.202 152.206)" fill="#54B858"/>
<ellipse cx="38.0355" cy="38.2296" rx="38.0355" ry="38.2296" transform="matrix(0.938958 0.344031 -0.340018 0.940419 643.202 152.206)" fill="url(#paint2_linear_23352_15218)"/>
</g>
<defs>
<linearGradient id="paint0_linear_23352_15218" x1="373" y1="203.479" x2="373" y2="496.245" gradientUnits="userSpaceOnUse">
<stop stop-color="#E18745"/>
<stop offset="1" stop-color="#D7A37E" stop-opacity="0"/>
</linearGradient>
<linearGradient id="paint1_linear_23352_15218" x1="38.0135" y1="0" x2="38.0135" y2="76.5031" gradientUnits="userSpaceOnUse">
<stop stop-color="#32A737"/>
<stop offset="1" stop-color="#54B858" stop-opacity="0"/>
</linearGradient>
<linearGradient id="paint2_linear_23352_15218" x1="38.0355" y1="0" x2="38.0355" y2="76.4593" gradientUnits="userSpaceOnUse">
<stop stop-color="#32A737"/>
<stop offset="1" stop-color="#54B858" stop-opacity="0"/>
</linearGradient>
<clipPath id="clip0_23352_15218">
<rect width="746" height="340" fill="white"/>
</clipPath>
</defs>
</svg>
