<svg width="344" height="259" viewBox="0 0 344 259" fill="none" xmlns="http://www.w3.org/2000/svg">
<g clip-path="url(#clip0_23549_12861)">
<rect width="344" height="259.755" rx="7.02041" fill="#F3F4F6"/>
<rect x="30.4219" y="94.1904" width="77.8095" height="77.8095" rx="12.8707" fill="#F9FAFB"/>
<rect x="-61.4287" y="94.1904" width="77.8095" height="77.8095" rx="12.8707" fill="#F9FAFB"/>
<rect x="235.769" y="94.1904" width="77.8095" height="77.8095" rx="12.8707" fill="#F9FAFB"/>
<rect x="327.619" y="94.1904" width="77.8095" height="77.8095" rx="12.8707" fill="#F9FAFB"/>
</g>
<rect x="122.272" y="83.605" width="99.4558" height="99.3905" rx="12.8707" fill="#E5E7EB"/>
<rect x="122.272" y="83.6045" width="99.4558" height="99.3905" rx="12.8707" fill="url(#paint0_linear_23549_12861)"/>
<path d="M165.759 143.014C165.759 135.791 167.474 133.588 170.782 131.445C173.538 129.67 175.621 128.14 175.621 125.63C175.621 123.365 173.783 121.835 171.517 121.835C169.128 121.835 167.046 123.61 166.984 126.242H156.204C156.327 116.816 163.248 112.837 171.578 112.837C180.766 112.837 187.504 116.938 187.504 125.018C187.504 130.221 184.686 133.343 180.46 135.791C177.275 137.689 175.682 139.464 175.682 143.014V143.994H165.759V143.014ZM170.843 158.44C167.536 158.44 164.841 155.808 164.902 152.502C164.841 149.258 167.536 146.626 170.843 146.626C173.967 146.626 176.785 149.258 176.785 152.502C176.785 155.808 173.967 158.44 170.843 158.44Z" fill="#D1D5DB"/>
<path d="M253.936 204.454C255.605 206.121 258.309 206.121 259.977 204.452C261.645 202.783 261.644 200.078 259.975 198.41L253.936 204.454ZM228.654 179.188L253.936 204.454L259.975 198.41L234.693 173.145L228.654 179.188Z" fill="#3692FF"/>
<path d="M240.441 153.847C240.441 170.905 226.602 184.738 209.526 184.738C192.45 184.738 178.612 170.905 178.612 153.847C178.612 136.789 192.45 122.956 209.526 122.956C226.602 122.956 240.441 136.789 240.441 153.847Z" stroke="black" stroke-width="8.54391"/>
<defs>
<linearGradient id="paint0_linear_23549_12861" x1="138.068" y1="87.9894" x2="208.794" y2="190.054" gradientUnits="userSpaceOnUse">
<stop stop-color="#BFD5FF"/>
<stop offset="1" stop-color="#E5E7EB" stop-opacity="0"/>
</linearGradient>
<clipPath id="clip0_23549_12861">
<rect width="344" height="259" fill="white"/>
</clipPath>
</defs>
</svg>
