<svg width="20" height="18" viewBox="0 0 20 18" fill="none" xmlns="http://www.w3.org/2000/svg">
<path d="M3.5332 0.6C3.03615 0.6 2.6332 1.00294 2.6332 1.5C2.6332 1.99706 3.03615 2.4 3.5332 2.4V0.6ZM3.5332 2.4H13.6665V0.6H3.5332V2.4ZM18.0999 6.83333V7.9H19.8999V6.83333H18.0999ZM13.6665 12.3333H3.5332V14.1333H13.6665V12.3333ZM18.0999 7.9C18.0999 10.3485 16.115 12.3333 13.6665 12.3333V14.1333C17.1091 14.1333 19.8999 11.3426 19.8999 7.9H18.0999ZM13.6665 2.4C16.115 2.4 18.0999 4.38487 18.0999 6.83333H19.8999C19.8999 3.39076 17.1091 0.6 13.6665 0.6V2.4Z" fill="white"/>
<path d="M-1.86502e-07 13.2333L7.2 9.53829L7.2 16.9284L-1.86502e-07 13.2333Z" fill="white"/>
</svg>
