<svg width="24" height="24" viewBox="0 0 24 24" fill="none" xmlns="http://www.w3.org/2000/svg">
<path d="M12.0021 15.5769C13.1352 15.5769 14.0976 15.1803 14.8892 14.3871C15.6809 13.5939 16.0767 12.6308 16.0767 11.4977C16.0767 10.3646 15.6802 9.40224 14.887 8.61058C14.0938 7.81891 13.1307 7.42308 11.9976 7.42308C10.8645 7.42308 9.9021 7.81966 9.11044 8.61282C8.31877 9.40601 7.92294 10.3692 7.92294 11.5023C7.92294 12.6353 8.31952 13.5977 9.11269 14.3894C9.90587 15.181 10.869 15.5769 12.0021 15.5769ZM11.9998 14.2C11.2498 14.2 10.6123 13.9375 10.0873 13.4125C9.56234 12.8875 9.29984 12.25 9.29984 11.5C9.29984 10.75 9.56234 10.1125 10.0873 9.58748C10.6123 9.06248 11.2498 8.79998 11.9998 8.79998C12.7498 8.79998 13.3873 9.06248 13.9123 9.58748C14.4373 10.1125 14.6998 10.75 14.6998 11.5C14.6998 12.25 14.4373 12.8875 13.9123 13.4125C13.3873 13.9375 12.7498 14.2 11.9998 14.2ZM11.9998 18.5C9.89472 18.5 7.96941 17.9384 6.22391 16.8153C4.47839 15.6923 3.08513 14.2147 2.04411 12.3827C1.96078 12.2391 1.89988 12.0944 1.86141 11.9485C1.82294 11.8027 1.80371 11.653 1.80371 11.4995C1.80371 11.346 1.82294 11.1965 1.86141 11.051C1.89988 10.9054 1.96078 10.7609 2.04411 10.6173C3.08513 8.78525 4.47839 7.30769 6.22391 6.18463C7.96941 5.06154 9.89472 4.5 11.9998 4.5C14.105 4.5 16.0303 5.06154 17.7758 6.18463C19.5213 7.30769 20.9145 8.78525 21.9556 10.6173C22.0389 10.7609 22.0998 10.9056 22.1383 11.0514C22.1767 11.1973 22.196 11.347 22.196 11.5005C22.196 11.654 22.1767 11.8035 22.1383 11.949C22.0998 12.0945 22.0389 12.2391 21.9556 12.3827C20.9145 14.2147 19.5213 15.6923 17.7758 16.8153C16.0303 17.9384 14.105 18.5 11.9998 18.5ZM11.9998 17C13.8832 17 15.6123 16.5041 17.1873 15.5125C18.7623 14.5208 19.9665 13.1833 20.7998 11.5C19.9665 9.81664 18.7623 8.47914 17.1873 7.48748C15.6123 6.49581 13.8832 5.99998 11.9998 5.99998C10.1165 5.99998 8.38734 6.49581 6.81234 7.48748C5.23734 8.47914 4.03317 9.81664 3.19984 11.5C4.03317 13.1833 5.23734 14.5208 6.81234 15.5125C8.38734 16.5041 10.1165 17 11.9998 17Z" fill="#4B5563"/>
</svg>
