<svg width="153" height="52" viewBox="0 0 153 52" fill="none" xmlns="http://www.w3.org/2000/svg">
<rect y="5.51678" width="40" height="40.1354" rx="11.1782" fill="#3692FF"/>
<path d="M19.3143 16.691C19.8136 18.4165 18.4934 20.3178 16.9801 20.7587C15.4668 21.1996 13.3994 20.2852 12.9001 18.5597C12.4008 16.8342 13.4489 14.4434 14.9622 14.0026C16.9801 13.4147 18.815 14.9655 19.3143 16.691Z" fill="#222327"/>
<path d="M20.1465 16.691C19.6472 18.4165 20.9674 20.3178 22.4807 20.7587C23.994 21.1996 26.0614 20.2852 26.5607 18.5597C27.06 16.8342 26.0119 14.4434 24.4986 14.0026C22.4807 13.4147 20.6458 14.9655 20.1465 16.691Z" fill="#222327"/>
<path d="M29.5171 29.2966C29.5171 33.6854 25.2137 35.3168 19.3436 35.3168C13.4735 35.3168 9.26746 33.6854 9.26746 29.2966C9.26746 24.1915 13.4735 19.6643 19.3436 19.6643C25.2137 19.6643 29.5171 23.8062 29.5171 29.2966Z" fill="#F3D6DD"/>
<path d="M17.4004 28.4301C17.4004 29.8675 16.4778 31.4444 15.1885 31.4444C13.8992 31.4444 11.8165 30.2732 11.8165 28.126C11.8165 26.109 14.0665 25.3916 16.3914 25.7599C17.8164 25.9857 17.4004 26.9927 17.4004 28.4301Z" fill="#222327"/>
<path d="M16.322 28.285C16.322 28.5007 16.2571 28.6754 15.9329 28.6754C15.6087 28.6754 15.5438 28.5007 15.5438 28.285C15.5438 28.0694 15.6735 27.8947 15.9329 27.8947C16.1923 27.8947 16.322 28.0694 16.322 28.285Z" fill="white"/>
<path d="M21.3221 28.4302C21.3221 29.8676 22.2447 31.4444 23.534 31.4444C24.8233 31.4444 26.906 30.2732 26.906 28.1261C26.906 26.109 24.6561 25.3917 22.3311 25.76C20.9061 25.9858 21.3221 26.9928 21.3221 28.4302Z" fill="#222327"/>
<path d="M22.4018 28.285C22.4018 28.5006 22.4666 28.6754 22.7909 28.6754C23.1151 28.6754 23.1799 28.5006 23.1799 28.285C23.1799 28.0694 23.0502 27.8946 22.7909 27.8946C22.5315 27.8946 22.4018 28.0694 22.4018 28.285Z" fill="white"/>
<path d="M17.8753 30.5092C17.7968 30.3946 17.6403 30.3654 17.5257 30.4439C17.4111 30.5224 17.3819 30.6789 17.4604 30.7935L17.8753 30.5092ZM19.3178 30.1998L19.5557 30.1183C19.5209 30.0166 19.4253 29.9483 19.3178 29.9483C19.2103 29.9483 19.1147 30.0166 19.0799 30.1183L19.3178 30.1998ZM21.1753 30.7935C21.2538 30.6789 21.2245 30.5224 21.1099 30.4439C20.9954 30.3654 20.8388 30.3946 20.7603 30.5092L21.1753 30.7935ZM17.4604 30.7935C17.5299 30.8949 17.6561 31.0308 17.8253 31.1431C17.9961 31.2564 18.2243 31.3544 18.4928 31.3544V30.8514C18.3489 30.8514 18.2162 30.7988 18.1034 30.724C17.989 30.6481 17.909 30.5583 17.8753 30.5092L17.4604 30.7935ZM18.4928 31.3544C18.8234 31.3544 19.0692 31.1186 19.2222 30.9156C19.3837 30.7013 19.4979 30.4502 19.5557 30.2813L19.0799 30.1183C19.0346 30.2505 18.9425 30.4509 18.8205 30.6128C18.6899 30.7861 18.5748 30.8514 18.4928 30.8514V31.3544ZM19.0799 30.2813C19.1377 30.4502 19.2519 30.7013 19.4134 30.9156C19.5664 31.1186 19.8123 31.3544 20.1428 31.3544V30.8514C20.0608 30.8514 19.9457 30.7861 19.8151 30.6128C19.6931 30.4509 19.601 30.2505 19.5557 30.1183L19.0799 30.2813ZM20.1428 31.3544C20.4114 31.3544 20.6395 31.2564 20.8103 31.1431C20.9796 31.0308 21.1058 30.8949 21.1753 30.7935L20.7603 30.5092C20.7267 30.5583 20.6466 30.6481 20.5323 30.724C20.4195 30.7988 20.2867 30.8514 20.1428 30.8514V31.3544Z" fill="#222327"/>
<path d="M20.691 29.9677C20.691 30.1769 19.7489 30.4432 19.4319 30.5269C19.3641 30.5448 19.2942 30.5448 19.2265 30.5269C18.9094 30.4432 17.9674 30.1769 17.9674 29.9677C17.9674 29.7162 18.7203 29.4472 19.3292 29.4472C19.938 29.4472 20.691 29.7162 20.691 29.9677Z" fill="#222327"/>
<path d="M19.1664 23.2767C15.3822 23.2767 13.9915 21.9472 13.7665 21.1696L15.5664 19.213L19.4664 18.5358L24.8663 21.1696C24.5413 21.7967 22.9548 23.2767 19.1664 23.2767Z" fill="#222327"/>
<path fill-rule="evenodd" clip-rule="evenodd" d="M19.69 37.4995C27.5101 37.4995 33.2429 35.2956 33.2429 29.3663C33.2429 21.9488 27.5101 16.3531 19.69 16.3531C11.87 16.3531 6.26685 22.4693 6.26685 29.3663C6.26685 35.2956 11.87 37.4995 19.69 37.4995ZM19.3826 35.2225C25.1348 35.2225 29.3518 33.6085 29.3518 29.2664C29.3518 23.8345 25.1348 19.7368 19.3826 19.7368C13.6303 19.7368 9.50878 24.2157 9.50878 29.2664C9.50878 33.6085 13.6303 35.2225 19.3826 35.2225Z" fill="white"/>
<path d="M70.8926 22.652H73.9685V26.2406H70.8926V33.5204H66.2786V29.009C62.9976 29.6754 59.7422 30.0343 55.0001 30.0343H49.6171V26.5226H51.6678V19.2428H50.1298V15.7823H64.2792V19.2428H62.7413V26.1381C63.9973 25.9843 65.1764 25.8048 66.2786 25.5998V15.526H70.8926V22.652ZM52.1548 39.621V32.008H56.8713V36.0581H71.4052V39.621H52.1548ZM56.2817 26.5226C56.9225 26.4969 57.5377 26.4969 58.1273 26.4713V19.2428H56.2817V26.5226ZM99.6016 24.4463V28.0349H96.5256V39.621H91.9117V35.5967C88.6306 36.5451 85.3752 37.0834 80.6331 37.0834H76.0192V16.295H89.1433V19.7554H80.6331V33.5716C85.324 33.5716 88.6563 33.1103 91.9117 32.1875V15.526H96.5256V24.4463H99.6016ZM125.235 24.4463V28.0349H122.159V39.621H117.545V15.526H122.159V24.4463H125.235ZM101.652 37.0834V16.295H115.058V37.0834H101.652ZM106.266 33.5716H110.496V19.8067H106.266V33.5716ZM144.844 15.526H149.33V29.4191H144.844V15.526ZM125.747 26.6764C128.746 26.0612 131.002 25.1127 132.258 23.908L127.285 24.2156V20.8833H133.335V19.2428H127.798V15.7823H137.821V20.3962H139.282V15.6541H143.639V29.4191H139.282V23.9849H137.154C135.795 26.6251 132.386 28.8039 127.208 30.1112L125.747 26.6764ZM128.541 35.9555C134.873 35.7248 136.718 34.4175 136.718 32.1875V30.2393H141.332V32.5976C141.332 33.2128 141.255 33.8023 141.102 34.3406C144.075 34.5457 147.023 34.9558 149.33 35.4941L148.099 39.621C145.459 38.6983 141.768 37.8011 138.795 37.3141C136.667 38.7495 133.258 39.4416 129.028 39.621L128.541 35.9555Z" fill="#3692FF"/>
</svg>
