<svg fill="none" height="20" viewBox="0 0 20 20" width="20" xmlns="http://www.w3.org/2000/svg"><path d="m9.49787 7.51837c-1.5608 0-2.83454 1.27373-2.83454 2.83453s1.27374 2.8345 2.83454 2.8345c1.56083 0 2.83453-1.2737 2.83453-2.8345s-1.2737-2.83453-2.83453-2.83453zm8.50153 2.83453c0-1.17379.0106-2.33695-.0553-3.50862-.0659-1.36091-.3764-2.56873-1.3716-3.5639-.9973-.9973-2.203-1.30564-3.5639-1.37155-1.1738-.06592-2.3369-.05529-3.5086-.05529-1.17379 0-2.33695-.01063-3.50862.05529-1.36092.06591-2.56874.37637-3.56391 1.37155-.9973.9973-1.30563 2.20299-1.37155 3.5639-.06592 1.1738-.05529 2.33696-.05529 3.50862 0 1.1717-.01063 2.337.05529 3.5086.06592 1.3609.37638 2.5688 1.37155 3.5639.9973.9973 2.20299 1.3057 3.56391 1.3716 1.17379.0659 2.33695.0553 3.50862.0553 1.1738 0 2.337.0106 3.5086-.0553 1.3609-.0659 2.5688-.3764 3.5639-1.3716.9973-.9973 1.3057-2.203 1.3716-3.5639.068-1.1716.0553-2.3348.0553-3.5086zm-8.50153 4.3613c-2.4135 0-4.36132-1.9478-4.36132-4.3613s1.94782-4.36132 4.36132-4.36132c2.41353 0 4.36133 1.94782 4.36133 4.36132s-1.9478 4.3613-4.36133 4.3613zm4.53993-7.88267c-.5635 0-1.0185-.45506-1.0185-1.01857 0-.5635.455-1.01856 1.0185-1.01856s1.0186.45506 1.0186 1.01856c.0001.13381-.0261.26634-.0772.38999s-.1262.236-.2208.33062-.2069.16964-.3306.22076c-.1237.05113-.2562.07736-.39.0772z" fill="#fff"/></svg>
