<svg fill="none" height="41" viewBox="0 0 40 41" width="40" xmlns="http://www.w3.org/2000/svg"><rect fill="#3692ff" height="40.1354" rx="11.1782" width="40" y=".516846"/><path d="m19.3141 11.6915c.4993 1.7254-.8209 3.6268-2.3342 4.0676-1.5133.4409-3.5808-.4735-4.0801-2.199s.5489-4.11622 2.0622-4.5571c2.0179-.58787 3.8528.96297 4.3521 2.6885z" fill="#222327"/><path d="m20.1463 11.6915c-.4993 1.7254.821 3.6268 2.3343 4.0676 1.5133.4409 3.5807-.4735 4.08-2.199s-.5489-4.11622-2.0622-4.5571c-2.0178-.58787-3.8528.96297-4.3521 2.6885z" fill="#222327"/><path d="m29.5167 24.2966c0 4.3888-4.3034 6.0202-10.1735 6.0202s-10.07611-1.6314-10.07611-6.0202c0-5.1051 4.20601-9.6323 10.07611-9.6323s10.1735 4.1419 10.1735 9.6323z" fill="#f3d6dd"/><path d="m17.4003 23.4301c0 1.4374-.9226 3.0143-2.2119 3.0143s-3.372-1.1712-3.372-3.3184c0-2.017 2.25-2.7344 4.5749-2.3661 1.425.2258 1.009 1.2328 1.009 2.6702z" fill="#222327"/><path d="m16.3219 23.285c0 .2157-.0648.3904-.3891.3904-.3242 0-.389-.1747-.389-.3904 0-.2156.1297-.3903.389-.3903.2594 0 .3891.1747.3891.3903z" fill="#fff"/><path d="m21.3222 23.4301c0 1.4374.9226 3.0143 2.2119 3.0143 1.2892 0 3.372-1.1712 3.372-3.3184 0-2.017-2.25-2.7344-4.5749-2.3661-1.425.2258-1.009 1.2328-1.009 2.6702z" fill="#222327"/><path d="m22.4015 23.2852c0 .2156.0649.3904.3891.3904s.3891-.1748.3891-.3904-.1297-.3904-.3891-.3904-.3891.1748-.3891.3904z" fill="#fff"/><g fill="#222327"><path d="m17.875 25.5098c-.0786-.1146-.2351-.1438-.3497-.0653s-.1438.235-.0653.3496zm1.4424-.3094.238-.0815c-.0349-.1017-.1305-.17-.238-.17-.1074 0-.203.0683-.2379.17zm1.8575.5937c.0785-.1146.0493-.2711-.0653-.3496s-.2711-.0493-.3497.0653zm-3.7149 0c.0695.1014.1957.2374.3649.3496.1708.1133.399.2113.6676.2113v-.503c-.144 0-.2767-.0526-.3895-.1274-.1144-.0759-.1944-.1657-.228-.2148zm1.0325.5609c.3305 0 .5763-.2358.7293-.4388.1616-.2143.2757-.4654.3336-.6342l-.4759-.1631c-.0453.1322-.1373.3326-.2594.4946-.1306.1732-.2457.2385-.3276.2385zm.587-1.073c.0579.1688.172.4199.3336.6342.153.203.3988.4388.7293.4388v-.503c-.0819 0-.197-.0653-.3276-.2385-.1221-.162-.2142-.3624-.2594-.4946zm1.0629 1.073c.2686 0 .4968-.098.6676-.2113.1692-.1122.2954-.2482.3649-.3496l-.415-.2843c-.0336.0491-.1136.1389-.228.2148-.1128.0748-.2456.1274-.3895.1274z"/><path d="m20.6906 24.968c0 .2093-.942.4755-1.2591.5592-.0677.0179-.1376.0179-.2054 0-.317-.0837-1.2591-.3499-1.2591-.5592 0-.2515.753-.5205 1.3618-.5205s1.3618.269 1.3618.5205z"/><path d="m19.166 18.2763c-3.7842 0-5.1749-1.3295-5.3999-2.1071l1.8-1.9565 3.8999-.6773 5.3999 2.6338c-.325.6271-1.9115 2.1071-5.6999 2.1071z"/></g><path clip-rule="evenodd" d="m19.6898 32.4992c7.82 0 13.5529-2.204 13.5529-8.1333 0-7.4175-5.7329-13.0131-13.5529-13.0131s-13.4232 6.1162-13.4232 13.0131c0 5.9293 5.6032 8.1333 13.4232 8.1333zm-.3075-2.2771c5.7522 0 9.9692-1.614 9.9692-5.956 0-5.4319-4.217-9.5297-9.9692-9.5297s-9.87376 4.479-9.87376 9.5297c0 4.342 4.12156 5.956 9.87376 5.956z" fill="#fff" fill-rule="evenodd"/></svg>
