<svg fill="none" height="16" viewBox="0 0 16 16" width="16" xmlns="http://www.w3.org/2000/svg"><rect fill="#fff" height="7" rx="2.5" width="8" x="4" y="3"/><path clip-rule="evenodd" d="m11.0912 5.78199-3.73331 3.73333-2.44866-2.44867c-.10459-.1141-.16108-.26418-.15772-.41892.00337-.15475.06635-.30222.17579-.41167.10945-.10945.25692-.17242.41167-.17579.15474-.00337.30482.05313.41892.15771l1.6 1.60001 2.88471-2.88467c.0557-.05573.1218-.09993.1946-.13009.0729-.03015.1509-.04568.2297-.04568s.1568.01553.2296.04568c.0728.03016.139.07436.1947.13009.0558.05572.1.12188.1301.19468.0302.07281.0457.15085.0457.22965 0 .07881-.0155.15684-.0457.22965-.0301.07281-.0743.13896-.1301.19469zm3.0067 1.26466c.0625-.06251.0976-.14728.0976-.23566 0-.08839-.0351-.17316-.0976-.23567l-.9667-.96667c-.0414-.04133-.0712-.09288-.0863-.14943-.0151-.05654-.015-.11608.0003-.17257l.3534-1.32c.0228-.0854.0107-.17635-.0336-.25287-.0442-.07651-.117-.13231-.2024-.15513l-1.32-.35333c-.0567-.01518-.1084-.04506-.1498-.08662-.0415-.04156-.0712-.09332-.0862-.15005l-.3534-1.32c-.0229-.08544-.0789-.15828-.1555-.20253-.0766-.04424-.1677-.05628-.2531-.03347l-1.32071.354c-.05645.01511-.11589.01506-.17231-.00016s-.10782-.04506-.14902-.08651l-.96667-.966662c-.06251-.06249-.14728-.097595-.23566-.097595-.08839 0-.17316.035105-.23567.097595l-.96667.967332c-.04137.04139-.09289.07118-.14941.08639-.05651.01521-.11603.01531-.17259.00028l-1.32-.35467c-.04233-.01139-.08649-.01431-.12995-.00861s-.08537.01992-.12333.04184c-.03796.02193-.07123.05112-.09789.08591-.02666.0348-.0462.07451-.05749.11686l-.354 1.32c-.01507.05653-.04475.1081-.08606.14952-.04131.04143-.09279.07126-.14928.08648l-1.32066.354c-.08527.02296-.15795.07883-.20207.15532-.04412.0765-.05609.16737-.03327.25268l.35334 1.32c.01532.05649.01543.11603.00033.17257-.0151.05655-.04489.1081-.08633.14943l-.96667.96667c-.03102.03091-.05564.06763-.07243.10807-.0168.04045-.02544.0838-.02544.1276 0 .04379.00864.08714.02544.12759.01679.04044.04141.07716.07243.10807l.96667.96667c.04144.04147.07122.09313.08632.14979.01509.05665.01498.11628-.00032.17287l-.35334 1.32c-.02282.08531-.01085.17619.03327.25269.04412.07649.1168.13233.20207.15533l1.32066.354c.05649.0152.10797.045.14928.0865.04131.0414.07099.093.08606.1495l.35333 1.32c.01169.0428.03181.0828.05917.1177s.06141.064.10016.0856l-1.24066 3.3447h3.45533l.87933-2.372.88067 2.372h3.45464l-1.2406-3.3447c.0387-.0215.0727-.0506.1-.0855.0272-.0349.0472-.075.0586-.1178l.3534-1.32c.015-.0567.0448-.1083.0862-.1498.0415-.0414.0931-.0712.1498-.0862l1.32-.3533c.0423-.0113.082-.0309.1168-.0575.0348-.02671.064-.05997.0859-.09793s.0362-.07987.0419-.12333.0027-.08762-.0086-.12996l-.3534-1.32c-.0153-.05648-.0154-.11602-.0003-.17257s.0449-.1081.0863-.14943l.9667-.96666z" fill="#ffc117" fill-rule="evenodd"/></svg>
