<svg fill="none" height="132" viewBox="0 0 396 132" width="396" xmlns="http://www.w3.org/2000/svg"><rect fill="#3692ff" height="103.88" rx="28.9317" width="103.529" y="12.9844"/><path d="m49.9902 41.9061c1.2923 4.4659-2.1247 9.387-6.0415 10.5281-3.9167 1.1411-9.2678-1.2256-10.5601-5.6915-1.2923-4.466 1.4206-10.6539 5.3374-11.795 5.2227-1.5215 9.9719 2.4924 11.2642 6.9584z" fill="#222327"/><path d="m52.1442 41.9061c-1.2923 4.4659 2.1247 9.387 6.0415 10.5281 3.9167 1.1411 9.2678-1.2256 10.5601-5.6915 1.2923-4.466-1.4206-10.6539-5.3374-11.795-5.2227-1.5215-9.9719 2.4924-11.2642 6.9584z" fill="#222327"/><path d="m76.3971 74.5322c0 11.3593-11.1382 15.5817-26.3314 15.5817s-26.0794-4.2224-26.0794-15.5817c0-13.2132 10.8862-24.9306 26.0794-24.9306s26.3314 10.7201 26.3314 24.9306z" fill="#f3d6dd"/><path d="m45.0365 72.2896c0 3.7204-2.388 7.8016-5.725 7.8016s-8.7275-3.0313-8.7275-8.5887c0-5.2205 5.8234-7.0772 11.8409-6.1239 3.6882.5843 2.6116 3.1907 2.6116 6.911z" fill="#222327"/><path d="m42.2451 71.9139c0 .558-.1678 1.0104-1.007 1.0104s-1.007-.4524-1.007-1.0104c0-.5581.3357-1.0105 1.007-1.0105.6714 0 1.007.4524 1.007 1.0105z" fill="#fff"/><path d="m55.1867 72.2896c0 3.7204 2.388 7.8016 5.725 7.8016s8.7275-3.0313 8.7275-8.5887c0-5.2205-5.8234-7.0772-11.8409-6.1239-3.6882.5843-2.6116 3.1907-2.6116 6.911z" fill="#222327"/><path d="m57.9812 71.9139c0 .558.1678 1.0104 1.007 1.0104s1.007-.4524 1.007-1.0104c0-.5581-.3356-1.0105-1.007-1.0105-.6713 0-1.007.4524-1.007 1.0105z" fill="#fff"/><g fill="#222327"><path d="m46.2655 77.6707c-.2032-.2966-.6083-.3723-.9049-.1691s-.3723.6084-.1691.905zm3.7335-.8007.6158-.211c-.0901-.2632-.3376-.44-.6158-.44s-.5256.1768-.6158.44zm4.8075 1.5366c.2032-.2966.1275-.7018-.169-.905-.2966-.2032-.7018-.1275-.905.1691zm-9.615 0c.1799.2624.5065.6143.9445.9049.4421.2932 1.0326.5467 1.7278.5467v-1.3019c-.3725 0-.7161-.1361-1.0081-.3297-.2959-.1964-.5031-.4288-.5902-.5559zm2.6723 1.4516c.8554 0 1.4917-.6102 1.8877-1.1356.4181-.5548.7136-1.2046.8633-1.6416l-1.2316-.422c-.1172.342-.3555.8609-.6714 1.28-.338.4484-.6359.6173-.848.6173zm1.5194-2.7772c.1497.437.4452 1.0868.8633 1.6416.396.5254 1.0323 1.1356 1.8878 1.1356v-1.3019c-.2122 0-.5101-.1689-.8481-.6173-.3159-.4191-.5542-.938-.6714-1.28zm2.7511 2.7772c.6951 0 1.2857-.2535 1.7277-.5467.438-.2906.7647-.6425.9445-.9049l-1.074-.7359c-.087.1271-.2942.3595-.5902.5559-.2919.1936-.6355.3297-1.008.3297z"/><path d="m53.553 76.2691c0 .5415-2.4382 1.2307-3.2588 1.4474-.1753.0463-.3562.0463-.5316 0-.8205-.2167-3.2588-.9059-3.2588-1.4474 0-.651 1.9488-1.3472 3.5246-1.3472s3.5246.6962 3.5246 1.3472z"/><path d="m49.6071 58.9512c-9.7945 0-13.3939-3.4409-13.9762-5.4536l4.6587-5.064 10.0939-1.7529 13.9762 6.8169c-.8412 1.6231-4.9474 5.4536-14.7526 5.4536z"/></g><path clip-rule="evenodd" d="m50.9626 95.7631c20.24 0 35.078-5.7044 35.078-21.0507 0-19.1983-14.838-33.6812-35.078-33.6812s-34.7424 15.8302-34.7424 33.6812c0 15.3463 14.5024 21.0507 34.7424 21.0507zm-.7956-5.8935c14.8881 0 25.8026-4.1774 25.8026-15.4156 0-14.059-10.9145-24.6649-25.8026-24.6649s-25.5557 11.5925-25.5557 24.6649c0 11.2382 10.6676 15.4156 25.5557 15.4156z" fill="#fff" fill-rule="evenodd"/><path d="m183.487 54.3351h7.961v9.2882h-7.961v18.8418h-11.942v-11.6766c-8.492 1.725-16.918 2.6538-29.192 2.6538h-13.932v-9.0892h5.307v-18.8418h-3.98v-8.9565h36.622v8.9565h-3.981v17.8467c3.251-.3981 6.303-.8625 9.156-1.3933v-26.0733h11.942zm-48.498 43.92v-19.7043h12.207v10.4824h37.617v9.2219zm10.681-33.902c1.659-.0663 3.251-.0663 4.777-.1327v-18.7091h-4.777zm112.122-5.3739v9.2882h-7.961v29.9877h-11.942v-10.4161c-8.492 2.4548-16.918 3.848-29.192 3.848h-11.942v-53.8053h33.969v8.9565h-22.027v35.7596c12.142 0 20.766-1.1942 29.192-3.5826v-43.1238h11.942v23.0878zm66.345 0v9.2882h-7.962v29.9877h-11.942v-62.3637h11.942v23.0878zm-61.037 32.7078v-53.8053h34.698v53.8053zm11.942-9.0892h10.947v-35.6269h-10.947zm99.848-46.7064h11.61v35.9586h-11.61zm-49.426 28.8598c7.762-1.5923 13.6-4.047 16.851-7.1652l-12.871.7961v-8.6248h15.658v-4.246h-14.331v-8.9565h25.941v11.942h3.781v-12.2737h11.279v35.6269h-11.279v-14.065h-5.506c-3.516 6.8335-12.34 12.4728-25.742 15.8563zm7.231 24.0167c16.387-.5971 21.164-3.9807 21.164-9.7527v-5.0421h11.942v6.1036c0 1.5923-.199 3.1182-.597 4.5115 7.696.5307 15.325 1.5922 21.296 2.9855l-3.184 10.6814c-6.834-2.3884-16.387-4.7104-24.083-5.971-5.507 3.7153-14.33 5.5066-25.277 5.971z" fill="#3692ff"/></svg>