<svg width="24" height="24" viewBox="0 0 24 24" fill="none" xmlns="http://www.w3.org/2000/svg">
<g clip-path="url(#clip0_11520_4368)">
<path d="M15.773 12.9731L14.65 11.85C14.8205 10.9603 14.5865 10.2013 13.948 9.57309C13.3096 8.94489 12.5435 8.70386 11.65 8.85001L10.5269 7.72696C10.759 7.61926 10.9977 7.5417 11.2432 7.49426C11.4887 7.44683 11.741 7.42311 12 7.42311C13.1346 7.42311 14.0977 7.81895 14.8894 8.61061C15.681 9.40228 16.0769 10.3654 16.0769 11.5C16.0769 11.759 16.0547 12.0112 16.0105 12.2567C15.9663 12.5022 15.8871 12.741 15.773 12.9731ZM18.9538 16.0846L17.85 15.05C18.4833 14.5667 19.05 14.0292 19.55 13.4375C20.05 12.8458 20.4666 12.2 20.8 11.5C19.9666 9.81668 18.7625 8.47918 17.1875 7.48751C15.6125 6.49585 13.8833 6.00001 12 6.00001C11.5166 6.00001 11.0458 6.03335 10.5875 6.10001C10.1291 6.16668 9.66662 6.26668 9.19995 6.40001L8.0346 5.23466C8.67049 4.98338 9.31888 4.79812 9.97978 4.67889C10.6407 4.55965 11.3141 4.50004 12 4.50004C14.1487 4.50004 16.1224 5.05837 17.9211 6.17504C19.7198 7.2917 21.1031 8.8026 22.0711 10.7077C22.1377 10.8346 22.1861 10.9625 22.2163 11.0914C22.2464 11.2202 22.2615 11.3564 22.2615 11.5C22.2615 11.6436 22.249 11.7798 22.224 11.9087C22.199 12.0375 22.1531 12.1654 22.0865 12.2923C21.7326 13.0449 21.2884 13.7397 20.7538 14.3769C20.2192 15.0141 19.6192 15.5833 18.9538 16.0846ZM12 18.5C9.89484 18.5 7.96536 17.9375 6.21153 16.8125C4.45768 15.6875 3.06344 14.2058 2.02883 12.3673C1.94549 12.2404 1.8846 12.1026 1.84615 11.9539C1.80769 11.8051 1.78845 11.6539 1.78845 11.5C1.78845 11.3462 1.80512 11.1974 1.83845 11.0539C1.87179 10.9103 1.93012 10.7699 2.01345 10.6327C2.38525 9.95323 2.80641 9.30611 3.27693 8.69136C3.74744 8.07661 4.28847 7.52565 4.9 7.03849L2.6423 4.76539C2.50384 4.61667 2.43557 4.44007 2.4375 4.23559C2.43942 4.0311 2.51281 3.85643 2.65768 3.71156C2.80254 3.56669 2.97819 3.49426 3.1846 3.49426C3.391 3.49426 3.56664 3.56669 3.7115 3.71156L20.2884 20.2885C20.4269 20.4269 20.5002 20.5984 20.5086 20.8029C20.5169 21.0073 20.4435 21.1872 20.2884 21.3423C20.1435 21.4872 19.9679 21.5596 19.7615 21.5596C19.5551 21.5596 19.3794 21.4872 19.2346 21.3423L15.7154 17.8538C15.1256 18.082 14.5195 18.2468 13.8971 18.3481C13.2746 18.4493 12.6423 18.5 12 18.5ZM5.95383 8.09229C5.36793 8.54485 4.84132 9.05672 4.374 9.62789C3.90669 10.199 3.51534 10.8231 3.19995 11.5C4.03329 13.1833 5.23745 14.5208 6.81245 15.5125C8.38745 16.5042 10.1166 17 12 17C12.4295 17 12.8522 16.9712 13.2683 16.9135C13.6843 16.8558 14.0974 16.7667 14.5077 16.6462L13.2423 15.35C13.0397 15.4384 12.8375 15.4984 12.6355 15.5298C12.4336 15.5612 12.2218 15.5769 12 15.5769C10.8654 15.5769 9.90222 15.1811 9.11055 14.3894C8.31889 13.5977 7.92305 12.6346 7.92305 11.5C7.92305 11.2782 7.94036 11.0664 7.97498 10.8644C8.00959 10.6625 8.06793 10.4603 8.14998 10.2577L5.95383 8.09229Z" fill="#4B5563"/>
</g>
<defs>
<clipPath id="clip0_11520_4368">
<rect width="24" height="24" fill="white"/>
</clipPath>
</defs>
</svg>
