<svg width="24" height="24" viewBox="0 0 24 24" fill="none" xmlns="http://www.w3.org/2000/svg">
<path d="M15.7731 12.9731L14.65 11.85C14.8205 10.9603 14.5866 10.2013 13.9481 9.57309C13.3096 8.94489 12.5436 8.70386 11.65 8.85001L10.527 7.72696C10.759 7.61926 10.9978 7.5417 11.2433 7.49426C11.4888 7.44683 11.741 7.42311 12 7.42311C13.1346 7.42311 14.0977 7.81895 14.8894 8.61061C15.6811 9.40228 16.0769 10.3654 16.0769 11.5C16.0769 11.759 16.0548 12.0112 16.0106 12.2567C15.9663 12.5022 15.8872 12.741 15.7731 12.9731ZM18.9538 16.0846L17.85 15.05C18.4833 14.5667 19.05 14.0292 19.55 13.4375C20.05 12.8458 20.4667 12.2 20.8 11.5C19.9667 9.81668 18.7625 8.47918 17.1875 7.48751C15.6125 6.49585 13.8833 6.00001 12 6.00001C11.5167 6.00001 11.0458 6.03335 10.5875 6.10001C10.1292 6.16668 9.66668 6.26668 9.20001 6.40001L8.03466 5.23466C8.67055 4.98338 9.31894 4.79812 9.97984 4.67889C10.6407 4.55965 11.3141 4.50004 12 4.50004C14.1487 4.50004 16.1224 5.05837 17.9211 6.17504C19.7199 7.2917 21.1032 8.8026 22.0711 10.7077C22.1378 10.8346 22.1862 10.9625 22.2163 11.0914C22.2464 11.2202 22.2615 11.3564 22.2615 11.5C22.2615 11.6436 22.249 11.7798 22.224 11.9087C22.199 12.0375 22.1532 12.1654 22.0865 12.2923C21.7327 13.0449 21.2884 13.7397 20.7538 14.3769C20.2192 15.0141 19.6192 15.5833 18.9538 16.0846ZM12 18.5C9.8949 18.5 7.96542 17.9375 6.21159 16.8125C4.45774 15.6875 3.0635 14.2058 2.02889 12.3673C1.94555 12.2404 1.88466 12.1026 1.84621 11.9539C1.80775 11.8051 1.78851 11.6539 1.78851 11.5C1.78851 11.3462 1.80518 11.1974 1.83851 11.0539C1.87185 10.9103 1.93018 10.7699 2.01351 10.6327C2.38531 9.95323 2.80647 9.30611 3.27699 8.69136C3.7475 8.07661 4.28853 7.52565 4.90006 7.03849L2.64236 4.76539C2.5039 4.61667 2.43563 4.44007 2.43756 4.23559C2.43948 4.0311 2.51287 3.85643 2.65774 3.71156C2.8026 3.56669 2.97825 3.49426 3.18466 3.49426C3.39106 3.49426 3.5667 3.56669 3.71156 3.71156L20.2885 20.2885C20.4269 20.4269 20.5003 20.5984 20.5086 20.8029C20.517 21.0073 20.4436 21.1872 20.2885 21.3423C20.1436 21.4872 19.968 21.5596 19.7615 21.5596C19.5551 21.5596 19.3795 21.4872 19.2346 21.3423L15.7154 17.8538C15.1257 18.082 14.5196 18.2468 13.8971 18.3481C13.2747 18.4493 12.6423 18.5 12 18.5ZM5.95389 8.09229C5.36799 8.54485 4.84138 9.05672 4.37406 9.62789C3.90675 10.199 3.5154 10.8231 3.20001 11.5C4.03335 13.1833 5.23751 14.5208 6.81251 15.5125C8.38751 16.5042 10.1167 17 12 17C12.4295 17 12.8523 16.9712 13.2683 16.9135C13.6843 16.8558 14.0975 16.7667 14.5077 16.6462L13.2423 15.35C13.0398 15.4384 12.8375 15.4984 12.6356 15.5298C12.4337 15.5612 12.2218 15.5769 12 15.5769C10.8654 15.5769 9.90228 15.1811 9.11061 14.3894C8.31895 13.5977 7.92311 12.6346 7.92311 11.5C7.92311 11.2782 7.94042 11.0664 7.97504 10.8644C8.00965 10.6625 8.06799 10.4603 8.15004 10.2577L5.95389 8.09229Z" fill="#4B5563"/>
</svg>
