<svg height="24.668" width="32.3789" xmlns="http://www.w3.org/2000/svg"><path d="m0 0h32.3789v24.668h-32.3789z" opacity="0"/><g fill="#4b5563"><path d="m7.36853 6.88446c-3.24315 2.05365-5.31775 4.65174-5.31775 5.45534 0 1.6524 6.2461 8.1914 13.96872 8.1914 1.5127 0 2.9705-.2531 4.3327-.6785l1.5183 1.5164c-1.7705.6326-3.7378 1.0137-5.851 1.0137-9.35153 0-16.0195-7.6523-16.0195-10.043 0-1.3863 2.22441-4.51701 5.90983-6.91229zm24.65877 5.45534c0 1.38-2.1788 4.5132-5.8515 6.9108l-1.4318-1.4309c3.189-2.0003 5.2326-4.5365 5.2326-5.4799 0-1.3945-6.2696-8.19136-13.9571-8.19136-1.4929 0-2.9307.25402-4.2764.67812l-1.5199-1.51896c1.7634-.63083 3.7137-1.01072 5.7963-1.01072 9.4571 0 16.0078 7.64062 16.0078 10.04292zm-13.2458 5.944c-.8361.3984-1.7727.6185-2.762.6185-3.6679 0-6.59762-2.9882-6.59762-6.5625 0-1.0024.21883-1.9472.61812-2.78705zm3.8123-5.944c0 .9682-.215 1.8933-.6069 2.7244l-8.7063-8.7011c.8301-.3788 1.7581-.58576 2.7389-.58576 3.6446 0 6.5743 2.89454 6.5743 6.56246z" fill-opacity=".5"/><path d="m24.9375 22.4883c.3516.3633.9023.3867 1.2773 0s.3516-.9141 0-1.2774l-19.60542-19.58199c-.33985-.35157-.92579-.35157-1.28907 0-.33984.33984-.33984.9375 0 1.27734z"/></g></svg>