<svg height="20.0977" width="32.3789" xmlns="http://www.w3.org/2000/svg"><path d="m0 0h32.3789v20.0977h-32.3789z" opacity="0"/><path d="m16.0195 20.0977c9.4688 0 16.0078-7.6524 16.0078-10.043 0-2.40236-6.5507-10.0429812-16.0078-10.0429812-9.33981 0-16.0195 7.6406212-16.0195 10.0429812 0 2.3906 6.66797 10.043 16.0195 10.043zm0-1.8516c-7.72262 0-13.96872-6.5391-13.96872-8.1914 0-1.39454 6.2461-8.19142 13.96872-8.19142 7.6875 0 13.9571 6.79688 13.9571 8.19142 0 1.6523-6.2696 8.1914-13.9571 8.1914zm0-1.6289c3.6446 0 6.5743-2.9883 6.5743-6.5625 0-3.66798-2.9297-6.56251-6.5743-6.56251-3.6679 0-6.59762 2.89453-6.59762 6.56251 0 3.5742 2.92972 6.5625 6.59762 6.5625zm0-4.3828c-1.2187 0-2.2031-.9844-2.2031-2.1797 0-1.20704.9844-2.1797 2.2031-2.1797 1.2071 0 2.1914.97266 2.1914 2.1797 0 1.1953-.9843 2.1797-2.1914 2.1797z" fill="#4b5563"/></svg>