<svg height="42" viewBox="0 0 43 43" width="42" xmlns="http://www.w3.org/2000/svg"><circle cx="21.5" cy="21.5" fill="#fff" r="21" stroke="#f9fafb"/><path d="m32.06 21.75c0-.78-.07-1.53-.2-2.25h-10.36v4.26h5.92c-.26 1.37-1.04 2.53-2.21 3.31v2.77h3.57c2.08-1.92 3.28-4.74 3.28-8.09z" fill="#4285f4"/><path d="m21.5 32.5c2.97 0 5.46-.98 7.28-2.66l-3.57-2.77c-.98.66-2.23 1.06-3.71 1.06-2.86 0-5.29-1.93-6.16-4.53h-3.66v2.84c1.81 3.59 5.52 6.06 9.82 6.06z" fill="#34a853"/><path d="m15.34 23.59c-.22-.66-.35-1.36-.35-2.09s.13-1.43.35-2.09v-2.84h-3.66c-.75 1.48-1.18 3.15-1.18 4.93s.43 3.45 1.18 4.93l2.85-2.22s.81-.62.81-.62z" fill="#fbbc05"/><path d="m21.5 14.88c1.62 0 3.06.56 4.21 1.64l3.15-3.15c-1.91-1.78-4.39-2.87-7.36-2.87-4.3 0-8.01 2.47-9.82 6.07l3.66 2.84c.87-2.6 3.3-4.53 6.16-4.53z" fill="#ea4335"/><path d="m10.5 10.5h22v22h-22z" fill="none"/></svg>