<svg fill="none" height="42" viewBox="0 0 42 42" width="42" xmlns="http://www.w3.org/2000/svg" xmlns:xlink="http://www.w3.org/1999/xlink"><clipPath id="a"><path d="m8 10h26v24h-26z"/></clipPath><circle cx="21" cy="21" fill="#f5e14b" r="21"/><g clip-path="url(#a)" fill="#331d1e"><path d="m17.5013 21.1897h1.4975l-.7488-2.1282z"/><path d="m21 10c-7.18 0-13 4.5902-13 10.2532 0 3.6611 2.4337 6.8772 6.0938 8.6877-.1988.6865-1.2801 4.4189-1.3226 4.7127 0 0-.0262.2201.1163.3039.0477.024.0998.0381.1531.0413.0533.0033.1067-.0044.1569-.0226.41-.0575 4.75-3.1022 5.5-3.6261.7629.106 1.5323.1582 2.3025.1563 7.18 0 13-4.5902 13-10.2532s-5.82-10.2532-13-10.2532zm-6.4338 8.6615c-.0162 1.4504.0125 2.9759-.0112 4.4038-.0075.4564-.27.5927-.625.7228-.0401.0141-.0833.0172-.125.0087-.4063-.08-.73-.2251-.74-.7302-.0287-1.4267.0088-2.9547-.0112-4.4051-.3438-.0138-.8338.0137-1.1526 0-.4425-.0288-.7499-.3101-.7312-.729.0188-.4189.2425-.7202.7388-.7277 1.1725-.0176 2.625-.0176 3.7975 0 .5.0075.7225.31.7375.7277.015.4176-.2876.7002-.7288.729-.315.0137-.8038-.0138-1.1488 0zm6.3001 5.0578c-.15.0682-.3128.1036-.4775.1038-.3125 0-.5513-.1251-.625-.3314l-.375-.9728h-2.2826l-.375.9728c-.0725.2038-.3112.3314-.625.3314-.1643 0-.3267-.0354-.4762-.1038-.2075-.095-.4062-.3576-.1787-1.0653l1.7987-4.724c.0754-.2081.2105-.3893.3884-.521.1779-.1316.3906-.2079.6116-.2193.2208.0126.4331.0895.6108.2212.1777.1318.313.3126.3892.5203l1.7925 4.7215c.2287.709.03.9766-.1762 1.0666zm3.7899 0h-2.4062c-.1864.0037-.3666-.0666-.5013-.1955s-.2129-.3058-.2175-.4922v-5.0916c.008-.1978.0922-.3848.2349-.5219s.3329-.2137.5308-.2137c.1978 0 .388.0766.5307.2137.1428.1371.2269.3241.2349.5219v4.4076h1.5937c.0938-.0057.1878.0079.2761.0399s.1692.0818.2376.1462.1229.1421.1601.2284c.0373.0863.0565.1793.0565.2732 0 .094-.0192.187-.0565.2732-.0372.0863-.0917.164-.1601.2284-.0684.0645-.1493.1142-.2376.1462s-.1823.0456-.2761.0399zm5.875-.5652c-.0195.148-.0827.2868-.1815.3987-.0988.1118-.2287.1917-.3731.2293-.1445.0376-.2968.0312-.4376-.0183s-.2636-.1399-.3527-.2596l-1.7588-2.3295-.26.2601v1.6368c0 .199-.079.3898-.2197.5305-.1406.1407-.3314.2197-.5303.2197s-.3897-.079-.5303-.2197c-.1407-.1407-.2197-.3315-.2197-.5305v-5.1266c0-.199.079-.3898.2197-.5305.1406-.1407.3314-.2198.5303-.2198s.3897.0791.5303.2198c.1407.1407.2197.3315.2197.5305v1.608l2.0925-2.0932c.0548-.0542.1198-.0969.1913-.1256.0714-.0288.1479-.043.225-.0419.1872.0049.3661.0788.5022.2076s.2199.3033.2352.4901c.0068.0833-.0043.1672-.0326.2459-.0282.0787-.0729.1504-.1311.2105l-1.7125 1.7093 1.8463 2.447c.1195.1587.1712.3584.1437.5552z"/></g></svg>